<?xml version="1.0" encoding="UTF-8" standalone="no"?>
<!-- Generator: Adobe Illustrator 17.1.0, SVG Export Plug-In . SVG Version: 6.00 Build 0)  -->

<svg
   xmlns:dc="http://purl.org/dc/elements/1.1/"
   xmlns:cc="http://creativecommons.org/ns#"
   xmlns:rdf="http://www.w3.org/1999/02/22-rdf-syntax-ns#"
   xmlns:svg="http://www.w3.org/2000/svg"
   xmlns="http://www.w3.org/2000/svg"
   xmlns:sodipodi="http://sodipodi.sourceforge.net/DTD/sodipodi-0.dtd"
   xmlns:inkscape="http://www.inkscape.org/namespaces/inkscape"
   version="1.1"
   id="Capa_1"
   x="0px"
   y="0px"
   viewBox="0 0 300 300"
   xml:space="preserve"
   inkscape:version="0.48.4 r9939"
   width="100%"
   height="100%"
   sodipodi:docname="site-logo.svg"><metadata
     id="metadata39"><rdf:RDF><cc:Work
         rdf:about=""><dc:format>image/svg+xml</dc:format><dc:type
           rdf:resource="http://purl.org/dc/dcmitype/StillImage" /></cc:Work></rdf:RDF></metadata><defs
     id="defs37" /><sodipodi:namedview
     pagecolor="#ffffff"
     bordercolor="#666666"
     borderopacity="1"
     objecttolerance="10"
     gridtolerance="10"
     guidetolerance="10"
     inkscape:pageopacity="0"
     inkscape:pageshadow="2"
     inkscape:window-width="1366"
     inkscape:window-height="744"
     id="namedview35"
     showgrid="false"
     inkscape:zoom="1.1218276"
     inkscape:cx="105.1855"
     inkscape:cy="165.80087"
     inkscape:window-x="0"
     inkscape:window-y="24"
     inkscape:window-maximized="1"
     inkscape:current-layer="Capa_1" /><path
     d="m 203.94993,53.905038 c 12.895,-4.862 24.628,-8.115 33.521,-10.206 1.191,-0.281 2.409,-0.423 3.619,-0.423 4.788,0 9.255,2.171 12.253,5.956 2.982,3.765 4.061,8.611 2.959,13.297 -2.091,8.893 -5.345,20.626 -10.207,33.521 l -42.145,-42.145 z m 13.037,134.713002 c 0.415,2.079 -0.067,4.235 -1.33,5.938 l -41.574,56.058 c -1.458,1.965 -3.719,3.033 -6.028,3.033 -1.205,0 -2.422,-0.29 -3.546,-0.894 -3.278,-1.762 -4.77,-5.661 -3.502,-9.161 0.097,-0.269 8.211,-22.987 6.313,-38.654 -0.748,-6.171 -2.434,-11.409 -4.173,-15.482 -2.643,0.516 -5.278,0.797 -7.904,0.882 l -4.593,15.157 c -0.765,2.523 -2.797,4.459 -5.354,5.1 -0.604,0.151 -1.216,0.225 -1.823,0.225 -1.965,0 -3.88,-0.773 -5.304,-2.197 l -1.188,-1.188 c -3.573,7.208 -9.464,16.41 -18.41,23.066 -14.64,10.892 -43.533998,11.739 -52.043998,11.739 -0.001,0 0,0 -0.001,0 -0.911,0 -1.411,-0.011 -1.411,-0.011 -4.018,-0.087 -7.26,-3.325 -7.343,-7.343 -0.078,-3.753 -0.41,-37.143 11.728,-53.457 6.655,-8.945 15.858,-14.837 23.065,-18.409 l -1.188,-1.189 c -1.863,-1.864 -2.612,-4.57 -1.972,-7.126 0.642,-2.557 2.577,-4.59 5.101,-5.354 l 15.144998,-4.589 c 0.083,-2.624 0.391,-5.258 0.906,-7.899 -4.078,-1.744 -9.321,-3.433 -15.493998,-4.181 -1.538,-0.187 -3.232,-0.281 -5.035,-0.281 -15.263,0 -33.435,6.525 -33.616,6.591 -3.501,1.271 -7.401,-0.222 -9.163,-3.501 -1.763,-3.28 -0.852,-7.355 2.139,-9.573 L 105.44293,84.343038 c 1.703,-1.263 3.861,-1.746 5.938,-1.331 0.767,0.153 3.983,0.92 13.211,4.347 4.526,1.681 9.319,4.011 13.248,6.08 15.556,-14.662 33.769,-25.446 51.115,-33.316 l 50.921,50.920002 c -7.87,17.346 -18.654,35.56 -33.315,51.115 2.069,3.929 4.399,8.722 6.08,13.249 3.427,9.228 4.193,12.445 4.346,13.211 z m -91.357,7.467 -21.722,-21.722 c -5.619998,2.26 -15.898998,7.317 -22.373998,16.019 -6.07,8.158 -8.125,25.454 -8.639,36.716 13.455,-0.587 29.240998,-3.067 36.721998,-8.632 8.657,-6.441 13.738,-16.751 16.013,-22.381 z m 74.85,-54.98 c 5.554,-5.554 8.612,-12.938 8.612,-20.793 0,-7.854 -3.059,-15.239 -8.612,-20.792002 -5.555,-5.554 -12.938,-8.613 -20.793,-8.613 -7.855,0 -15.238,3.059 -20.793,8.613 -5.554,5.554002 -8.612,12.938002 -8.612,20.792002 0,7.854 3.059,15.239 8.612,20.793 5.555,5.554 12.938,8.613 20.793,8.613 7.855,0 15.239,-3.059 20.793,-8.613 z m -20.792,-35.198 c -3.848,0 -7.465,1.499 -10.186,4.219 -2.722,2.721 -4.22,6.338 -4.22,10.186 0,3.848 1.498,7.465 4.22,10.187 2.721,2.721 6.338,4.219 10.186,4.219 3.848,0 7.465,-1.499 10.186,-4.219 2.722,-2.721 4.22,-6.338 4.22,-10.187 0,-3.848 -1.498,-7.465 -4.22,-10.186 -2.722,-2.72 -6.339,-4.219 -10.186,-4.219 z"
     id="path3"
     inkscape:connector-curvature="0" /><g
     id="g5"
     transform="translate(0,89.629)" /><g
     id="g7"
     transform="translate(0,89.629)" /><g
     id="g9"
     transform="translate(0,89.629)" /><g
     id="g11"
     transform="translate(0,89.629)" /><g
     id="g13"
     transform="translate(0,89.629)" /><g
     id="g15"
     transform="translate(0,89.629)" /><g
     id="g17"
     transform="translate(0,89.629)" /><g
     id="g19"
     transform="translate(0,89.629)" /><g
     id="g21"
     transform="translate(0,89.629)" /><g
     id="g23"
     transform="translate(0,89.629)" /><g
     id="g25"
     transform="translate(0,89.629)" /><g
     id="g27"
     transform="translate(0,89.629)" /><g
     id="g29"
     transform="translate(0,89.629)" /><g
     id="g31"
     transform="translate(0,89.629)" /><g
     id="g33"
     transform="translate(0,89.629)" /></svg>